<svg width="45" height="44" viewBox="0 0 45 44" fill="none" xmlns="http://www.w3.org/2000/svg">
<path fill-rule="evenodd" clip-rule="evenodd" d="M22.5186 0C10.0664 0 0 10.0833 0 22.5577C0 32.5292 6.44989 40.9698 15.3976 43.9572C16.5163 44.1818 16.9261 43.4718 16.9261 42.8746C16.9261 42.3517 16.8892 40.5591 16.8892 38.6914C10.6251 40.0362 9.32061 36.0024 9.32061 36.0024C8.31392 33.3881 6.82233 32.7162 6.82233 32.7162C4.77208 31.3343 6.97167 31.3343 6.97167 31.3343C9.24594 31.4837 10.4393 33.6498 10.4393 33.6498C12.4522 37.0854 15.6958 36.1147 17.0007 35.517C17.187 34.0604 17.7839 33.0521 18.4177 32.492C13.4216 31.9691 8.16504 30.0271 8.16504 21.3624C8.16504 18.8975 9.05926 16.8808 10.4762 15.3124C10.2526 14.7523 9.46949 12.4364 10.7002 9.33667C10.7002 9.33667 12.6016 8.73901 16.8887 11.6522C18.7242 11.1584 20.6171 10.9072 22.5186 10.9051C24.42 10.9051 26.3582 11.1668 28.148 11.6522C32.4357 8.73901 34.337 9.33667 34.337 9.33667C35.5677 12.4364 34.7841 14.7523 34.5606 15.3124C36.0149 16.8808 36.8722 18.8975 36.8722 21.3624C36.8722 30.0271 31.6157 31.9315 26.5822 32.492C27.4027 33.2015 28.1107 34.5458 28.1107 36.6748C28.1107 39.6998 28.0738 42.1275 28.0738 42.8742C28.0738 43.4718 28.4841 44.1818 29.6023 43.9576C38.55 40.9693 44.9999 32.5292 44.9999 22.5577C45.0368 10.0833 34.9335 0 22.5186 0Z" fill="#24292F"/>
</svg>
