<svg width="110" height="44" viewBox="0 0 110 44" fill="none" xmlns="http://www.w3.org/2000/svg">
<path fill-rule="evenodd" clip-rule="evenodd" d="M0 44H109.312V0H0V44Z" fill="#ED1C24"/>
<path fill-rule="evenodd" clip-rule="evenodd" d="M105.948 33.8122V40.4557H93.6573V3.51367H100.275V33.8122H105.948ZM53.4326 21.6292C52.9203 21.8753 52.3849 21.9991 51.8634 22.0003V10.1189C51.8717 10.1189 51.8827 10.1182 51.8965 10.1182C52.4182 10.1145 56.3154 10.2734 56.3154 15.9946C56.3154 18.985 54.9888 20.8719 53.4326 21.6292ZM34.0361 28.922L35.8688 13.126L37.7703 28.922H34.0361ZM92.5033 10.2559V3.51918H73.7638L70.6787 26.0207L67.6314 3.51918H60.8729L61.6295 9.52603C60.8495 7.98714 58.0839 3.51918 51.994 3.51918C51.9533 3.51659 45.2271 3.51918 45.2271 3.51918L45.2014 36.316L40.2758 3.51918L31.425 3.51546L26.3286 37.4957L26.3295 3.51918H17.8597L14.8062 22.6071L11.8313 3.51918H3.35706V40.4616H10.0309V22.6554L13.0672 40.4616H16.6139L19.607 22.6554V40.4616H32.4717L33.2502 34.7801H38.4295L39.207 40.4616L51.8471 40.469V40.4616H51.8634V28.4712L53.4113 28.2451L56.6157 40.469H63.1491L63.1471 40.4616H63.1656L58.9595 26.1364C61.0897 24.5573 63.4972 20.5539 62.857 16.7234V16.7217C62.8643 16.7703 66.8262 40.4852 66.8262 40.4852L74.5962 40.4616L79.9068 6.97803V40.4616H92.5033V33.8175H86.5235V25.3468H92.5033V18.601H86.5235V10.2559H92.5033Z" fill="white"/>
</svg>
